+ filenameToUse=/home/horvathandras/vatic/vatic/public/videouploads/DJI_0060_30m_regi_disznoturas_jo_homokmegy_20180603_napos_kalaszos_T4.avi
+ filenameNoDot=DJI_0060_30m_regi_disznoturas_jo_homokmegy_20180603_napos_kalaszos_T4
+ FullUploadPath=/home/horvathandras/vatic/vatic/public/videouploads/DJI_0060_30m_regi_disznoturas_jo_homokmegy_20180603_napos_kalaszos_T4.avi
+ VideoDataDir=/home/horvathandras/vatic/vatic/videos
+ AvailableObjectTypes='PozitívROI NegatívROI Túrás ~Friss ~1-2Hetes ~Régebbi ~Egyéb1 ~Egyéb2 ~Egyéb3 Rágás ~Friss ~1-2Hetes ~Régebbi ~Egyéb1 ~Egyéb2 ~Egyéb3 Törés ~Friss ~1-2Hetes ~Régebbi ~Egyéb1 ~Egyéb2 ~Egyéb3 Taposás ~Friss ~1-2Hetes ~Régebbi ~Egyéb1 ~Egyéb2 ~Egyéb3 EgészségesNövény Egyéb1 Egyéb2 Egyéb3 Egyéb4 Egyéb5 Bizonytalan Művelőút Gktaposás Vetőhiba Széldöntés Jégkár Belvíz Aszály Erózió EgyszikűGyom KétszikűGyom EgyébNövvédelmiPR'
++ dirname /home/horvathandras/vatic/vatic/vatic_publisher.sh
+ cd /home/horvathandras/vatic/vatic
+ touch /home/horvathandras/vatic/vatic/public/videouploads/DJI_0060_30m_regi_disznoturas_jo_homokmegy_20180603_napos_kalaszos_T4.avi
+ chmod 744 /home/horvathandras/vatic/vatic/public/videouploads/DJI_0060_30m_regi_disznoturas_jo_homokmegy_20180603_napos_kalaszos_T4.avi
+ mkdir /home/horvathandras/vatic/vatic/videos/DJI_0060_30m_regi_disznoturas_jo_homokmegy_20180603_napos_kalaszos_T4
+ turkic extract /home/horvathandras/vatic/vatic/public/videouploads/DJI_0060_30m_regi_disznoturas_jo_homokmegy_20180603_napos_kalaszos_T4.avi /home/horvathandras/vatic/vatic/videos/DJI_0060_30m_regi_disznoturas_jo_homokmegy_20180603_napos_kalaszos_T4 --no-resize
ffmpeg version 2.8.14-0ubuntu0.16.04.1 Copyright (c) 2000-2018 the FFmpeg developers
  built with gcc 5.4.0 (Ubuntu 5.4.0-6ubuntu1~16.04.9) 20160609
  configuration: --prefix=/usr --extra-version=0ubuntu0.16.04.1 --build-suffix=-ffmpeg --toolchain=hardened --libdir=/usr/lib/x86_64-linux-gnu --incdir=/usr/include/x86_64-linux-gnu --cc=cc --cxx=g++ --enable-gpl --enable-shared --disable-stripping --disable-decoder=libopenjpeg --disable-decoder=libschroedinger --enable-avresample --enable-avisynth --enable-gnutls --enable-ladspa --enable-libass --enable-libbluray --enable-libbs2b --enable-libcaca --enable-libcdio --enable-libflite --enable-libfontconfig --enable-libfreetype --enable-libfribidi --enable-libgme --enable-libgsm --enable-libmodplug --enable-libmp3lame --enable-libopenjpeg --enable-libopus --enable-libpulse --enable-librtmp --enable-libschroedinger --enable-libshine --enable-libsnappy --enable-libsoxr --enable-libspeex --enable-libssh --enable-libtheora --enable-libtwolame --enable-libvorbis --enable-libvpx --enable-libwavpack --enable-libwebp --enable-libx265 --enable-libxvid --enable-libzvbi --enable-openal --enable-opengl --enable-x11grab --enable-libdc1394 --enable-libiec61883 --enable-libzmq --enable-frei0r --enable-libx264 --enable-libopencv
  libavutil      54. 31.100 / 54. 31.100
  libavcodec     56. 60.100 / 56. 60.100
  libavformat    56. 40.101 / 56. 40.101
  libavdevice    56.  4.100 / 56.  4.100
  libavfilter     5. 40.101 /  5. 40.101
  libavresample   2.  1.  0 /  2.  1.  0
  libswscale      3.  1.101 /  3.  1.101
  libswresample   1.  2.101 /  1.  2.101
  libpostproc    53.  3.100 / 53.  3.100
Input #0, mov,mp4,m4a,3gp,3g2,mj2, from '/home/horvathandras/vatic/vatic/public/videouploads/DJI_0060_30m_regi_disznoturas_jo_homokmegy_20180603_napos_kalaszos_T4.avi':
  Metadata:
    major_brand     : qt  
    minor_version   : 537986816
    compatible_brands: qt  
    creation_time   : 2018-06-03 08:54:17
    location        : +46.517529+19.173403+30.200
    location-{    : +46.517529+19.173403+30.200
    comment         : DE=None, Mode=P, DSW=0001
  Duration: 00:00:26.30, start: 0.000000, bitrate: 100666 kb/s
    Stream #0:0(eng): Video: h264 (High) (avc1 / 0x31637661), yuv420p(tv, bt709), 4096x2160 [SAR 1:1 DAR 256:135], 100511 kb/s, 50 fps, 50 tbr, 50k tbn, 100 tbc (default)
    Metadata:
      creation_time   : 2018-06-03 08:54:17
      handler_name    : DJI.AVC
      encoder         : AVC encoder
    Stream #0:1(eng): Data: none (priv / 0x76697270), 146 kb/s
    Metadata:
      creation_time   : 2018-06-03 08:54:17
      handler_name    : DJI.Meta
Please use -b:a or -b:v, -b is ambiguous
[swscaler @ 0x1f30000] deprecated pixel format used, make sure you did set range correctly
Output #0, image2, to '/tmp/pyvision-ffmpeg-635698145/%d.jpg':
  Metadata:
    major_brand     : qt  
    minor_version   : 537986816
    compatible_brands: qt  
    comment         : DE=None, Mode=P, DSW=0001
    location        : +46.517529+19.173403+30.200
    location-{    : +46.517529+19.173403+30.200
    encoder         : Lavf56.40.101
    Stream #0:0(eng): Video: mjpeg, yuvj420p(pc), 4096x2160 [SAR 1:1 DAR 256:135], q=2-31, 10000 kb/s, 50 fps, 50 tbn, 50 tbc (default)
    Metadata:
      creation_time   : 2018-06-03 08:54:17
      handler_name    : DJI.AVC
      encoder         : Lavc56.60.100 mjpeg
Stream mapping:
  Stream #0:0 -> #0:0 (h264 (native) -> mjpeg (native))
Press [q] to stop, [?] for help
frame=    1 fps=0.8 q=18.3 size=N/A time=00:00:00.02 bitrate=N/A    frame=    3 fps=1.5 q=22.6 size=N/A time=00:00:00.06 bitrate=N/A    frame=    6 fps=2.3 q=24.8 size=N/A time=00:00:00.12 bitrate=N/A    frame=    9 fps=2.8 q=24.8 size=N/A time=00:00:00.18 bitrate=N/A    frame=   12 fps=3.0 q=24.8 size=N/A time=00:00:00.24 bitrate=N/A    frame=   15 fps=3.2 q=24.8 size=N/A time=00:00:00.30 bitrate=N/A    frame=   18 fps=3.4 q=24.8 size=N/A time=00:00:00.36 bitrate=N/A    frame=   20 fps=3.4 q=24.8 size=N/A time=00:00:00.40 bitrate=N/A    frame=   23 fps=3.6 q=24.8 size=N/A time=00:00:00.46 bitrate=N/A    frame=   26 fps=3.6 q=24.8 size=N/A time=00:00:00.52 bitrate=N/A    frame=   28 fps=3.6 q=24.8 size=N/A time=00:00:00.56 bitrate=N/A    frame=   30 fps=3.6 q=24.8 size=N/A time=00:00:00.60 bitrate=N/A    frame=   33 fps=3.7 q=24.8 size=N/A time=00:00:00.66 bitrate=N/A    frame=   36 fps=3.7 q=24.8 size=N/A time=00:00:00.72 bitrate=N/A    frame=   38 fps=3.7 q=24.8 size=N/A time=00:00:00.76 bitrate=N/A    frame=   40 fps=3.7 q=24.8 size=N/A time=00:00:00.80 bitrate=N/A    frame=   42 fps=3.7 q=24.8 size=N/A time=00:00:00.84 bitrate=N/A    frame=   45 fps=3.7 q=24.8 size=N/A time=00:00:00.90 bitrate=N/A    frame=   48 fps=3.8 q=24.8 size=N/A time=00:00:00.96 bitrate=N/A    frame=   50 fps=3.8 q=24.8 size=N/A time=00:00:01.00 bitrate=N/A    frame=   52 fps=3.8 q=24.8 size=N/A time=00:00:01.04 bitrate=N/A    frame=   55 fps=3.8 q=24.8 size=N/A time=00:00:01.10 bitrate=N/A    frame=   57 fps=3.8 q=24.8 size=N/A time=00:00:01.14 bitrate=N/A    frame=   59 fps=3.8 q=24.8 size=N/A time=00:00:01.18 bitrate=N/A    frame=   62 fps=3.9 q=24.8 size=N/A time=00:00:01.24 bitrate=N/A    frame=   65 fps=3.9 q=24.8 size=N/A time=00:00:01.30 bitrate=N/A    frame=   68 fps=4.0 q=24.8 size=N/A time=00:00:01.36 bitrate=N/A    frame=   71 fps=4.0 q=24.8 size=N/A time=00:00:01.42 bitrate=N/A    frame=   74 fps=4.1 q=24.8 size=N/A time=00:00:01.48 bitrate=N/A    frame=   77 fps=4.1 q=24.8 size=N/A time=00:00:01.54 bitrate=N/A    frame=   80 fps=4.1 q=24.8 size=N/A time=00:00:01.60 bitrate=N/A    frame=   83 fps=4.1 q=24.8 size=N/A time=00:00:01.66 bitrate=N/A    frame=   86 fps=4.2 q=24.8 size=N/A time=00:00:01.72 bitrate=N/A    frame=   90 fps=4.2 q=24.8 size=N/A time=00:00:01.80 bitrate=N/A    frame=   92 fps=4.2 q=24.8 size=N/A time=00:00:01.84 bitrate=N/A    frame=   94 fps=4.2 q=24.8 size=N/A time=00:00:01.88 bitrate=N/A    frame=   98 fps=4.3 q=24.8 size=N/A time=00:00:01.96 bitrate=N/A    frame=  101 fps=4.3 q=24.8 size=N/A time=00:00:02.02 bitrate=N/A    frame=  104 fps=4.3 q=24.8 size=N/A time=00:00:02.08 bitrate=N/A    frame=  107 fps=4.3 q=24.8 size=N/A time=00:00:02.14 bitrate=N/A    frame=  110 fps=4.4 q=24.8 size=N/A time=00:00:02.20 bitrate=N/A    frame=  113 fps=4.4 q=24.8 size=N/A time=00:00:02.26 bitrate=N/A    frame=  116 fps=4.4 q=24.8 size=N/A time=00:00:02.32 bitrate=N/A    frame=  120 fps=4.5 q=24.8 size=N/A time=00:00:02.40 bitrate=N/A    frame=  122 fps=4.5 q=24.8 size=N/A time=00:00:02.44 bitrate=N/A    frame=  124 fps=4.5 q=24.8 size=N/A time=00:00:02.48 bitrate=N/A    frame=  127 fps=4.5 q=24.8 size=N/A time=00:00:02.54 bitrate=N/A    frame=  130 fps=4.5 q=24.8 size=N/A time=00:00:02.60 bitrate=N/A    frame=  133 fps=4.5 q=24.8 size=N/A time=00:00:02.66 bitrate=N/A    frame=  136 fps=4.5 q=24.8 size=N/A time=00:00:02.72 bitrate=N/A    frame=  139 fps=4.5 q=24.8 size=N/A time=00:00:02.78 bitrate=N/A    frame=  143 fps=4.6 q=24.8 size=N/A time=00:00:02.86 bitrate=N/A    frame=  146 fps=4.6 q=24.8 size=N/A time=00:00:02.92 bitrate=N/A    frame=  148 fps=4.5 q=24.8 size=N/A time=00:00:02.96 bitrate=N/A    frame=  151 fps=4.5 q=24.8 size=N/A time=00:00:03.02 bitrate=N/A    frame=  154 fps=4.6 q=24.8 size=N/A time=00:00:03.08 bitrate=N/A    frame=  157 fps=4.6 q=24.8 size=N/A time=00:00:03.14 bitrate=N/A    frame=  160 fps=4.6 q=24.8 size=N/A time=00:00:03.20 bitrate=N/A    frame=  163 fps=4.6 q=24.8 size=N/A time=00:00:03.26 bitrate=N/A    frame=  167 fps=4.6 q=24.8 size=N/A time=00:00:03.34 bitrate=N/A    frame=  170 fps=4.6 q=24.8 size=N/A time=00:00:03.40 bitrate=N/A    frame=  173 fps=4.6 q=24.8 size=N/A time=00:00:03.46 bitrate=N/A    frame=  176 fps=4.6 q=24.8 size=N/A time=00:00:03.52 bitrate=N/A    frame=  178 fps=4.6 q=24.8 size=N/A time=00:00:03.56 bitrate=N/A    frame=  181 fps=4.6 q=24.8 size=N/A time=00:00:03.62 bitrate=N/A    frame=  183 fps=4.6 q=24.8 size=N/A time=00:00:03.66 bitrate=N/A    frame=  186 fps=4.6 q=24.8 size=N/A time=00:00:03.72 bitrate=N/A    frame=  189 fps=4.6 q=24.8 size=N/A time=00:00:03.78 bitrate=N/A    frame=  192 fps=4.6 q=24.8 size=N/A time=00:00:03.84 bitrate=N/A    frame=  195 fps=4.6 q=24.8 size=N/A time=00:00:03.90 bitrate=N/A    frame=  198 fps=4.6 q=24.8 size=N/A time=00:00:03.96 bitrate=N/A    frame=  201 fps=4.6 q=24.8 size=N/A time=00:00:04.02 bitrate=N/A    frame=  205 fps=4.6 q=24.8 size=N/A time=00:00:04.10 bitrate=N/A    frame=  208 fps=4.6 q=24.8 size=N/A time=00:00:04.16 bitrate=N/A    frame=  210 fps=4.6 q=24.8 size=N/A time=00:00:04.20 bitrate=N/A    frame=  212 fps=4.6 q=24.8 size=N/A time=00:00:04.24 bitrate=N/A    frame=  216 fps=4.6 q=24.8 size=N/A time=00:00:04.32 bitrate=N/A    frame=  219 fps=4.6 q=24.8 size=N/A time=00:00:04.38 bitrate=N/A    frame=  222 fps=4.7 q=24.8 size=N/A time=00:00:04.44 bitrate=N/A    frame=  225 fps=4.7 q=24.8 size=N/A time=00:00:04.50 bitrate=N/A    frame=  228 fps=4.7 q=24.8 size=N/A time=00:00:04.56 bitrate=N/A    frame=  231 fps=4.7 q=24.8 size=N/A time=00:00:04.62 bitrate=N/A    frame=  234 fps=4.7 q=24.8 size=N/A time=00:00:04.68 bitrate=N/A    frame=  237 fps=4.7 q=24.8 size=N/A time=00:00:04.74 bitrate=N/A    frame=  239 fps=4.7 q=24.8 size=N/A time=00:00:04.78 bitrate=N/A    frame=  242 fps=4.7 q=24.8 size=N/A time=00:00:04.84 bitrate=N/A    frame=  246 fps=4.7 q=24.8 size=N/A time=00:00:04.92 bitrate=N/A    frame=  249 fps=4.7 q=24.8 size=N/A time=00:00:04.98 bitrate=N/A    frame=  252 fps=4.7 q=24.8 size=N/A time=00:00:05.04 bitrate=N/A    frame=  254 fps=4.7 q=24.8 size=N/A time=00:00:05.08 bitrate=N/A    frame=  256 fps=4.7 q=24.8 size=N/A time=00:00:05.12 bitrate=N/A    frame=  258 fps=4.7 q=24.8 size=N/A time=00:00:05.16 bitrate=N/A    frame=  261 fps=4.7 q=24.8 size=N/A time=00:00:05.22 bitrate=N/A    frame=  264 fps=4.7 q=24.8 size=N/A time=00:00:05.28 bitrate=N/A    frame=  267 fps=4.7 q=24.8 size=N/A time=00:00:05.34 bitrate=N/A    frame=  270 fps=4.7 q=24.8 size=N/A time=00:00:05.40 bitrate=N/A    frame=  273 fps=4.7 q=24.8 size=N/A time=00:00:05.46 bitrate=N/A    frame=  276 fps=4.7 q=24.8 size=N/A time=00:00:05.52 bitrate=N/A    frame=  278 fps=4.7 q=24.8 size=N/A time=00:00:05.56 bitrate=N/A    frame=  281 fps=4.7 q=24.8 size=N/A time=00:00:05.62 bitrate=N/A    frame=  283 fps=4.7 q=24.8 size=N/A time=00:00:05.66 bitrate=N/A    frame=  285 fps=4.7 q=24.8 size=N/A time=00:00:05.70 bitrate=N/A    frame=  287 fps=4.7 q=24.8 size=N/A time=00:00:05.74 bitrate=N/A    frame=  290 fps=4.7 q=24.8 size=N/A time=00:00:05.80 bitrate=N/A    frame=  293 fps=4.7 q=24.8 size=N/A time=00:00:05.86 bitrate=N/A    frame=  295 fps=4.7 q=24.8 size=N/A time=00:00:05.90 bitrate=N/A    frame=  298 fps=4.7 q=24.8 size=N/A time=00:00:05.96 bitrate=N/A    frame=  301 fps=4.6 q=24.8 size=N/A time=00:00:06.02 bitrate=N/A    frame=  304 fps=4.7 q=24.8 size=N/A time=00:00:06.08 bitrate=N/A    frame=  307 fps=4.7 q=24.8 size=N/A time=00:00:06.14 bitrate=N/A    frame=  310 fps=4.7 q=24.8 size=N/A time=00:00:06.20 bitrate=N/A    frame=  313 fps=4.7 q=24.8 size=N/A time=00:00:06.26 bitrate=N/A    frame=  316 fps=4.7 q=24.8 size=N/A time=00:00:06.32 bitrate=N/A    frame=  318 fps=4.6 q=24.8 size=N/A time=00:00:06.36 bitrate=N/A    frame=  321 fps=4.6 q=24.8 size=N/A time=00:00:06.42 bitrate=N/A    frame=  324 fps=4.7 q=24.8 size=N/A time=00:00:06.48 bitrate=N/A    frame=  326 fps=4.6 q=24.8 size=N/A time=00:00:06.52 bitrate=N/A    frame=  329 fps=4.6 q=24.8 size=N/A time=00:00:06.58 bitrate=N/A    frame=  332 fps=4.6 q=24.8 size=N/A time=00:00:06.64 bitrate=N/A    frame=  335 fps=4.6 q=24.8 size=N/A time=00:00:06.70 bitrate=N/A    frame=  337 fps=4.6 q=24.8 size=N/A time=00:00:06.74 bitrate=N/A    frame=  340 fps=4.6 q=24.8 size=N/A time=00:00:06.80 bitrate=N/A    frame=  343 fps=4.6 q=24.8 size=N/A time=00:00:06.86 bitrate=N/A    frame=  346 fps=4.6 q=24.8 size=N/A time=00:00:06.92 bitrate=N/A    frame=  348 fps=4.6 q=24.8 size=N/A time=00:00:06.96 bitrate=N/A    frame=  350 fps=4.6 q=24.8 size=N/A time=00:00:07.00 bitrate=N/A    frame=  352 fps=4.6 q=24.8 size=N/A time=00:00:07.04 bitrate=N/A    frame=  355 fps=4.6 q=24.8 size=N/A time=00:00:07.10 bitrate=N/A    frame=  358 fps=4.6 q=24.8 size=N/A time=00:00:07.16 bitrate=N/A    frame=  361 fps=4.6 q=24.8 size=N/A time=00:00:07.22 bitrate=N/A    frame=  364 fps=4.6 q=24.8 size=N/A time=00:00:07.28 bitrate=N/A    frame=  367 fps=4.6 q=24.8 size=N/A time=00:00:07.34 bitrate=N/A    frame=  369 fps=4.6 q=24.8 size=N/A time=00:00:07.38 bitrate=N/A    frame=  372 fps=4.6 q=24.8 size=N/A time=00:00:07.44 bitrate=N/A    frame=  375 fps=4.6 q=24.8 size=N/A time=00:00:07.50 bitrate=N/A    frame=  377 fps=4.6 q=24.8 size=N/A time=00:00:07.54 bitrate=N/A    frame=  380 fps=4.6 q=24.8 size=N/A time=00:00:07.60 bitrate=N/A    frame=  383 fps=4.6 q=24.8 size=N/A time=00:00:07.66 bitrate=N/A    frame=  386 fps=4.6 q=24.8 size=N/A time=00:00:07.72 bitrate=N/A    frame=  389 fps=4.6 q=24.8 size=N/A time=00:00:07.78 bitrate=N/A    frame=  392 fps=4.6 q=24.8 size=N/A time=00:00:07.84 bitrate=N/A    frame=  396 fps=4.6 q=24.8 size=N/A time=00:00:07.92 bitrate=N/A    frame=  399 fps=4.6 q=24.8 size=N/A time=00:00:07.98 bitrate=N/A    frame=  401 fps=4.6 q=24.8 size=N/A time=00:00:08.02 bitrate=N/A    frame=  404 fps=4.6 q=24.8 size=N/A time=00:00:08.08 bitrate=N/A    frame=  408 fps=4.6 q=24.8 size=N/A time=00:00:08.16 bitrate=N/A    frame=  411 fps=4.7 q=24.8 size=N/A time=00:00:08.22 bitrate=N/A    frame=  414 fps=4.7 q=24.8 size=N/A time=00:00:08.28 bitrate=N/A    frame=  417 fps=4.7 q=24.8 size=N/A time=00:00:08.34 bitrate=N/A    frame=  420 fps=4.7 q=24.8 size=N/A time=00:00:08.40 bitrate=N/A    frame=  422 fps=4.7 q=24.8 size=N/A time=00:00:08.44 bitrate=N/A    frame=  425 fps=4.6 q=24.8 size=N/A time=00:00:08.50 bitrate=N/A    frame=  428 fps=4.7 q=24.8 size=N/A time=00:00:08.56 bitrate=N/A    frame=  431 fps=4.7 q=24.8 size=N/A time=00:00:08.62 bitrate=N/A    frame=  435 fps=4.7 q=24.8 size=N/A time=00:00:08.70 bitrate=N/A    frame=  438 fps=4.7 q=24.8 size=N/A time=00:00:08.76 bitrate=N/A    frame=  441 fps=4.7 q=24.8 size=N/A time=00:00:08.82 bitrate=N/A    frame=  444 fps=4.7 q=24.8 size=N/A time=00:00:08.88 bitrate=N/A    frame=  448 fps=4.7 q=24.8 size=N/A time=00:00:08.96 bitrate=N/A    frame=  451 fps=4.7 q=24.8 size=N/A time=00:00:09.02 bitrate=N/A    frame=  454 fps=4.7 q=24.8 size=N/A time=00:00:09.08 bitrate=N/A    frame=  457 fps=4.7 q=24.8 size=N/A time=00:00:09.14 bitrate=N/A    frame=  459 fps=4.7 q=24.8 size=N/A time=00:00:09.18 bitrate=N/A    frame=  462 fps=4.7 q=24.8 size=N/A time=00:00:09.24 bitrate=N/A    frame=  465 fps=4.7 q=24.8 size=N/A time=00:00:09.30 bitrate=N/A    frame=  467 fps=4.7 q=24.8 size=N/A time=00:00:09.34 bitrate=N/A    frame=  470 fps=4.7 q=24.8 size=N/A time=00:00:09.40 bitrate=N/A    frame=  473 fps=4.7 q=24.8 size=N/A time=00:00:09.46 bitrate=N/A    frame=  476 fps=4.7 q=24.8 size=N/A time=00:00:09.52 bitrate=N/A    frame=  479 fps=4.7 q=24.8 size=N/A time=00:00:09.58 bitrate=N/A    frame=  481 fps=4.7 q=24.8 size=N/A time=00:00:09.62 bitrate=N/A    frame=  483 fps=4.6 q=24.8 size=N/A time=00:00:09.66 bitrate=N/A    frame=  486 fps=4.6 q=24.8 size=N/A time=00:00:09.72 bitrate=N/A    frame=  489 fps=4.7 q=24.8 size=N/A time=00:00:09.78 bitrate=N/A    frame=  492 fps=4.7 q=24.8 size=N/A time=00:00:09.84 bitrate=N/A    frame=  495 fps=4.7 q=24.8 size=N/A time=00:00:09.90 bitrate=N/A    frame=  499 fps=4.7 q=24.8 size=N/A time=00:00:09.98 bitrate=N/A    frame=  502 fps=4.7 q=24.8 size=N/A time=00:00:10.04 bitrate=N/A    frame=  505 fps=4.7 q=24.8 size=N/A time=00:00:10.10 bitrate=N/A    frame=  507 fps=4.7 q=24.8 size=N/A time=00:00:10.14 bitrate=N/A    frame=  510 fps=4.7 q=24.8 size=N/A time=00:00:10.20 bitrate=N/A    frame=  513 fps=4.7 q=24.8 size=N/A time=00:00:10.26 bitrate=N/A    frame=  517 fps=4.7 q=24.8 size=N/A time=00:00:10.34 bitrate=N/A    frame=  521 fps=4.7 q=24.8 size=N/A time=00:00:10.42 bitrate=N/A    frame=  525 fps=4.7 q=24.8 size=N/A time=00:00:10.50 bitrate=N/A    frame=  529 fps=4.7 q=24.8 size=N/A time=00:00:10.58 bitrate=N/A    frame=  532 fps=4.7 q=24.8 size=N/A time=00:00:10.64 bitrate=N/A    frame=  536 fps=4.7 q=24.8 size=N/A time=00:00:10.72 bitrate=N/A    frame=  539 fps=4.7 q=24.8 size=N/A time=00:00:10.78 bitrate=N/A    frame=  543 fps=4.7 q=24.8 size=N/A time=00:00:10.86 bitrate=N/A    frame=  545 fps=4.7 q=24.8 size=N/A time=00:00:10.90 bitrate=N/A    frame=  547 fps=4.7 q=24.8 size=N/A time=00:00:10.94 bitrate=N/A    frame=  549 fps=4.7 q=24.8 size=N/A time=00:00:10.98 bitrate=N/A    frame=  551 fps=4.7 q=24.8 size=N/A time=00:00:11.02 bitrate=N/A    frame=  555 fps=4.7 q=24.8 size=N/A time=00:00:11.10 bitrate=N/A    frame=  558 fps=4.7 q=24.8 size=N/A time=00:00:11.16 bitrate=N/A    frame=  561 fps=4.7 q=24.8 size=N/A time=00:00:11.22 bitrate=N/A    frame=  563 fps=4.7 q=24.8 size=N/A time=00:00:11.26 bitrate=N/A    frame=  565 fps=4.7 q=24.8 size=N/A time=00:00:11.30 bitrate=N/A    frame=  568 fps=4.7 q=24.8 size=N/A time=00:00:11.36 bitrate=N/A    frame=  570 fps=4.7 q=24.8 size=N/A time=00:00:11.40 bitrate=N/A    frame=  573 fps=4.7 q=24.8 size=N/A time=00:00:11.46 bitrate=N/A    frame=  577 fps=4.7 q=24.8 size=N/A time=00:00:11.54 bitrate=N/A    frame=  580 fps=4.7 q=24.8 size=N/A time=00:00:11.60 bitrate=N/A    frame=  583 fps=4.7 q=24.8 size=N/A time=00:00:11.66 bitrate=N/A    frame=  586 fps=4.7 q=24.8 size=N/A time=00:00:11.72 bitrate=N/A    frame=  589 fps=4.7 q=24.8 size=N/A time=00:00:11.78 bitrate=N/A    frame=  592 fps=4.7 q=24.8 size=N/A time=00:00:11.84 bitrate=N/A    frame=  595 fps=4.7 q=24.8 size=N/A time=00:00:11.90 bitrate=N/A    frame=  598 fps=4.7 q=24.8 size=N/A time=00:00:11.96 bitrate=N/A    frame=  600 fps=4.7 q=24.8 size=N/A time=00:00:12.00 bitrate=N/A    frame=  604 fps=4.7 q=24.8 size=N/A time=00:00:12.08 bitrate=N/A    frame=  608 fps=4.7 q=24.8 size=N/A time=00:00:12.16 bitrate=N/A    frame=  612 fps=4.7 q=24.8 size=N/A time=00:00:12.24 bitrate=N/A    frame=  616 fps=4.8 q=24.8 size=N/A time=00:00:12.32 bitrate=N/A    frame=  619 fps=4.8 q=24.8 size=N/A time=00:00:12.38 bitrate=N/A    frame=  622 fps=4.8 q=24.8 size=N/A time=00:00:12.44 bitrate=N/A    frame=  625 fps=4.8 q=24.8 size=N/A time=00:00:12.50 bitrate=N/A    frame=  627 fps=4.8 q=24.8 size=N/A time=00:00:12.54 bitrate=N/A    frame=  630 fps=4.8 q=24.8 size=N/A time=00:00:12.60 bitrate=N/A    frame=  633 fps=4.8 q=24.8 size=N/A time=00:00:12.66 bitrate=N/A    frame=  636 fps=4.8 q=24.8 size=N/A time=00:00:12.72 bitrate=N/A    frame=  640 fps=4.8 q=24.8 size=N/A time=00:00:12.80 bitrate=N/A    frame=  644 fps=4.8 q=24.8 size=N/A time=00:00:12.88 bitrate=N/A    frame=  647 fps=4.8 q=24.8 size=N/A time=00:00:12.94 bitrate=N/A    frame=  650 fps=4.8 q=24.8 size=N/A time=00:00:13.00 bitrate=N/A    frame=  654 fps=4.8 q=24.8 size=N/A time=00:00:13.08 bitrate=N/A    frame=  657 fps=4.8 q=24.8 size=N/A time=00:00:13.14 bitrate=N/A    frame=  661 fps=4.8 q=24.8 size=N/A time=00:00:13.22 bitrate=N/A    frame=  665 fps=4.8 q=24.8 size=N/A time=00:00:13.30 bitrate=N/A    frame=  668 fps=4.8 q=24.8 size=N/A time=00:00:13.36 bitrate=N/A    frame=  671 fps=4.8 q=24.8 size=N/A time=00:00:13.42 bitrate=N/A    frame=  674 fps=4.8 q=24.8 size=N/A time=00:00:13.48 bitrate=N/A    frame=  678 fps=4.8 q=24.8 size=N/A time=00:00:13.56 bitrate=N/A    frame=  682 fps=4.8 q=24.8 size=N/A time=00:00:13.64 bitrate=N/A    frame=  686 fps=4.8 q=24.8 size=N/A time=00:00:13.72 bitrate=N/A    frame=  689 fps=4.8 q=24.8 size=N/A time=00:00:13.78 bitrate=N/A    frame=  693 fps=4.8 q=24.8 size=N/A time=00:00:13.86 bitrate=N/A    frame=  695 fps=4.8 q=24.8 size=N/A time=00:00:13.90 bitrate=N/A    frame=  698 fps=4.8 q=24.8 size=N/A time=00:00:13.96 bitrate=N/A    frame=  701 fps=4.8 q=24.8 size=N/A time=00:00:14.02 bitrate=N/A    frame=  704 fps=4.8 q=24.8 size=N/A time=00:00:14.08 bitrate=N/A    frame=  708 fps=4.8 q=24.8 size=N/A time=00:00:14.16 bitrate=N/A    frame=  711 fps=4.8 q=24.8 size=N/A time=00:00:14.22 bitrate=N/A    frame=  714 fps=4.8 q=24.8 size=N/A time=00:00:14.28 bitrate=N/A    frame=  716 fps=4.8 q=24.8 size=N/A time=00:00:14.32 bitrate=N/A    frame=  719 fps=4.8 q=24.8 size=N/A time=00:00:14.38 bitrate=N/A    frame=  723 fps=4.8 q=24.8 size=N/A time=00:00:14.46 bitrate=N/A    frame=  726 fps=4.8 q=24.8 size=N/A time=00:00:14.52 bitrate=N/A    frame=  729 fps=4.8 q=24.8 size=N/A time=00:00:14.58 bitrate=N/A    frame=  733 fps=4.8 q=24.8 size=N/A time=00:00:14.66 bitrate=N/A    frame=  737 fps=4.9 q=24.8 size=N/A time=00:00:14.74 bitrate=N/A    frame=  741 fps=4.9 q=24.8 size=N/A time=00:00:14.82 bitrate=N/A    frame=  743 fps=4.9 q=24.8 size=N/A time=00:00:14.86 bitrate=N/A    frame=  746 fps=4.9 q=24.8 size=N/A time=00:00:14.92 bitrate=N/A    frame=  749 fps=4.9 q=24.8 size=N/A time=00:00:14.98 bitrate=N/A    frame=  752 fps=4.9 q=24.8 size=N/A time=00:00:15.04 bitrate=N/A    frame=  754 fps=4.9 q=24.8 size=N/A time=00:00:15.08 bitrate=N/A    frame=  758 fps=4.9 q=24.8 size=N/A time=00:00:15.16 bitrate=N/A    frame=  761 fps=4.9 q=24.8 size=N/A time=00:00:15.22 bitrate=N/A    frame=  763 fps=4.9 q=24.8 size=N/A time=00:00:15.26 bitrate=N/A    frame=  766 fps=4.9 q=24.8 size=N/A time=00:00:15.32 bitrate=N/A    frame=  770 fps=4.9 q=24.8 size=N/A time=00:00:15.40 bitrate=N/A    frame=  774 fps=4.9 q=24.8 size=N/A time=00:00:15.48 bitrate=N/A    frame=  778 fps=4.9 q=24.8 size=N/A time=00:00:15.56 bitrate=N/A    frame=  782 fps=4.9 q=24.8 size=N/A time=00:00:15.64 bitrate=N/A    frame=  785 fps=4.9 q=24.8 size=N/A time=00:00:15.70 bitrate=N/A    frame=  788 fps=4.9 q=24.8 size=N/A time=00:00:15.76 bitrate=N/A    frame=  792 fps=4.9 q=24.8 size=N/A time=00:00:15.84 bitrate=N/A    frame=  795 fps=4.9 q=24.8 size=N/A time=00:00:15.90 bitrate=N/A    frame=  799 fps=4.9 q=24.8 size=N/A time=00:00:15.98 bitrate=N/A    frame=  803 fps=4.9 q=24.8 size=N/A time=00:00:16.06 bitrate=N/A    frame=  807 fps=4.9 q=24.8 size=N/A time=00:00:16.14 bitrate=N/A    frame=  809 fps=4.9 q=24.8 size=N/A time=00:00:16.18 bitrate=N/A    frame=  812 fps=4.9 q=24.8 size=N/A time=00:00:16.24 bitrate=N/A    frame=  814 fps=4.9 q=24.8 size=N/A time=00:00:16.28 bitrate=N/A    frame=  817 fps=4.9 q=24.8 size=N/A time=00:00:16.34 bitrate=N/A    frame=  820 fps=4.9 q=24.8 size=N/A time=00:00:16.40 bitrate=N/A    frame=  823 fps=4.9 q=24.8 size=N/A time=00:00:16.46 bitrate=N/A    frame=  827 fps=4.9 q=24.8 size=N/A time=00:00:16.54 bitrate=N/A    frame=  831 fps=4.9 q=24.8 size=N/A time=00:00:16.62 bitrate=N/A    frame=  834 fps=4.9 q=24.8 size=N/A time=00:00:16.68 bitrate=N/A    frame=  837 fps=4.9 q=24.8 size=N/A time=00:00:16.74 bitrate=N/A    frame=  840 fps=4.9 q=24.8 size=N/A time=00:00:16.80 bitrate=N/A    frame=  843 fps=4.9 q=24.8 size=N/A time=00:00:16.86 bitrate=N/A    frame=  846 fps=4.9 q=24.8 size=N/A time=00:00:16.92 bitrate=N/A    frame=  849 fps=4.9 q=24.8 size=N/A time=00:00:16.98 bitrate=N/A    frame=  852 fps=4.9 q=24.8 size=N/A time=00:00:17.04 bitrate=N/A    frame=  855 fps=4.9 q=24.8 size=N/A time=00:00:17.10 bitrate=N/A    frame=  858 fps=4.9 q=24.8 size=N/A time=00:00:17.16 bitrate=N/A    frame=  862 fps=4.9 q=24.8 size=N/A time=00:00:17.24 bitrate=N/A    frame=  865 fps=4.9 q=24.8 size=N/A time=00:00:17.30 bitrate=N/A    frame=  868 fps=4.9 q=24.8 size=N/A time=00:00:17.36 bitrate=N/A    frame=  871 fps=4.9 q=24.8 size=N/A time=00:00:17.42 bitrate=N/A    frame=  873 fps=4.9 q=24.8 size=N/A time=00:00:17.46 bitrate=N/A    frame=  876 fps=4.9 q=24.8 size=N/A time=00:00:17.52 bitrate=N/A    frame=  880 fps=4.9 q=24.8 size=N/A time=00:00:17.60 bitrate=N/A    frame=  884 fps=4.9 q=24.8 size=N/A time=00:00:17.68 bitrate=N/A    frame=  888 fps=4.9 q=24.8 size=N/A time=00:00:17.76 bitrate=N/A    frame=  891 fps=4.9 q=24.8 size=N/A time=00:00:17.82 bitrate=N/A    frame=  895 fps=4.9 q=24.8 size=N/A time=00:00:17.90 bitrate=N/A    frame=  898 fps=4.9 q=24.8 size=N/A time=00:00:17.96 bitrate=N/A    frame=  902 fps=4.9 q=24.8 size=N/A time=00:00:18.04 bitrate=N/A    frame=  906 fps=4.9 q=24.8 size=N/A time=00:00:18.12 bitrate=N/A    frame=  910 fps=5.0 q=24.8 size=N/A time=00:00:18.20 bitrate=N/A    frame=  914 fps=5.0 q=24.8 size=N/A time=00:00:18.28 bitrate=N/A    frame=  918 fps=5.0 q=24.8 size=N/A time=00:00:18.36 bitrate=N/A    frame=  922 fps=5.0 q=24.8 size=N/A time=00:00:18.44 bitrate=N/A    frame=  926 fps=5.0 q=24.8 size=N/A time=00:00:18.52 bitrate=N/A    frame=  930 fps=5.0 q=24.8 size=N/A time=00:00:18.60 bitrate=N/A    frame=  934 fps=5.0 q=24.8 size=N/A time=00:00:18.68 bitrate=N/A    frame=  939 fps=5.0 q=24.8 size=N/A time=00:00:18.78 bitrate=N/A    frame=  942 fps=5.0 q=24.8 size=N/A time=00:00:18.84 bitrate=N/A    frame=  946 fps=5.0 q=24.8 size=N/A time=00:00:18.92 bitrate=N/A    frame=  949 fps=5.0 q=24.8 size=N/A time=00:00:18.98 bitrate=N/A    frame=  953 fps=5.0 q=24.8 size=N/A time=00:00:19.06 bitrate=N/A    frame=  956 fps=5.0 q=24.8 size=N/A time=00:00:19.12 bitrate=N/A    frame=  959 fps=5.0 q=24.8 size=N/A time=00:00:19.18 bitrate=N/A    frame=  963 fps=5.0 q=24.8 size=N/A time=00:00:19.26 bitrate=N/A    frame=  967 fps=5.0 q=24.8 size=N/A time=00:00:19.34 bitrate=N/A    frame=  971 fps=5.0 q=24.8 size=N/A time=00:00:19.42 bitrate=N/A    frame=  975 fps=5.0 q=24.8 size=N/A time=00:00:19.50 bitrate=N/A    frame=  979 fps=5.0 q=24.8 size=N/A time=00:00:19.58 bitrate=N/A    frame=  983 fps=5.0 q=24.8 size=N/A time=00:00:19.66 bitrate=N/A    frame=  987 fps=5.0 q=24.8 size=N/A time=00:00:19.74 bitrate=N/A    frame=  991 fps=5.0 q=24.8 size=N/A time=00:00:19.82 bitrate=N/A    frame=  995 fps=5.1 q=24.8 size=N/A time=00:00:19.90 bitrate=N/A    frame=  999 fps=5.1 q=24.8 size=N/A time=00:00:19.98 bitrate=N/A    frame= 1003 fps=5.1 q=24.8 size=N/A time=00:00:20.06 bitrate=N/A    frame= 1007 fps=5.1 q=24.8 size=N/A time=00:00:20.14 bitrate=N/A    frame= 1010 fps=5.1 q=24.8 size=N/A time=00:00:20.20 bitrate=N/A    frame= 1014 fps=5.1 q=24.8 size=N/A time=00:00:20.28 bitrate=N/A    frame= 1018 fps=5.1 q=24.8 size=N/A time=00:00:20.36 bitrate=N/A    frame= 1021 fps=5.1 q=24.8 size=N/A time=00:00:20.42 bitrate=N/A    frame= 1025 fps=5.1 q=24.8 size=N/A time=00:00:20.50 bitrate=N/A    frame= 1029 fps=5.1 q=24.8 size=N/A time=00:00:20.58 bitrate=N/A    frame= 1032 fps=5.1 q=24.8 size=N/A time=00:00:20.64 bitrate=N/A    frame= 1036 fps=5.1 q=24.8 size=N/A time=00:00:20.72 bitrate=N/A    frame= 1040 fps=5.1 q=24.8 size=N/A time=00:00:20.80 bitrate=N/A    frame= 1044 fps=5.1 q=24.8 size=N/A time=00:00:20.88 bitrate=N/A    frame= 1048 fps=5.1 q=24.8 size=N/A time=00:00:20.96 bitrate=N/A    frame= 1051 fps=5.1 q=24.8 size=N/A time=00:00:21.02 bitrate=N/A    frame= 1054 fps=5.1 q=24.8 size=N/A time=00:00:21.08 bitrate=N/A    frame= 1058 fps=5.1 q=24.8 size=N/A time=00:00:21.16 bitrate=N/A    frame= 1062 fps=5.1 q=24.8 size=N/A time=00:00:21.24 bitrate=N/A    frame= 1066 fps=5.1 q=24.8 size=N/A time=00:00:21.32 bitrate=N/A    frame= 1070 fps=5.1 q=24.8 size=N/A time=00:00:21.40 bitrate=N/A    frame= 1074 fps=5.1 q=24.8 size=N/A time=00:00:21.48 bitrate=N/A    frame= 1078 fps=5.1 q=24.8 size=N/A time=00:00:21.56 bitrate=N/A    frame= 1081 fps=5.1 q=24.8 size=N/A time=00:00:21.62 bitrate=N/A    frame= 1084 fps=5.1 q=24.8 size=N/A time=00:00:21.68 bitrate=N/A    frame= 1088 fps=5.1 q=24.8 size=N/A time=00:00:21.76 bitrate=N/A    frame= 1092 fps=5.2 q=24.8 size=N/A time=00:00:21.84 bitrate=N/A    frame= 1096 fps=5.2 q=24.8 size=N/A time=00:00:21.92 bitrate=N/A    frame= 1100 fps=5.2 q=24.8 size=N/A time=00:00:22.00 bitrate=N/A    frame= 1104 fps=5.2 q=24.8 size=N/A time=00:00:22.08 bitrate=N/A    frame= 1108 fps=5.2 q=24.8 size=N/A time=00:00:22.16 bitrate=N/A    frame= 1112 fps=5.2 q=24.8 size=N/A time=00:00:22.24 bitrate=N/A    frame= 1116 fps=5.2 q=24.8 size=N/A time=00:00:22.32 bitrate=N/A    frame= 1120 fps=5.2 q=24.8 size=N/A time=00:00:22.40 bitrate=N/A    frame= 1124 fps=5.2 q=24.8 size=N/A time=00:00:22.48 bitrate=N/A    frame= 1128 fps=5.2 q=24.8 size=N/A time=00:00:22.56 bitrate=N/A    frame= 1132 fps=5.2 q=24.8 size=N/A time=00:00:22.64 bitrate=N/A    frame= 1136 fps=5.2 q=24.8 size=N/A time=00:00:22.72 bitrate=N/A    frame= 1140 fps=5.2 q=24.8 size=N/A time=00:00:22.80 bitrate=N/A    frame= 1144 fps=5.2 q=24.8 size=N/A time=00:00:22.88 bitrate=N/A    frame= 1148 fps=5.2 q=24.8 size=N/A time=00:00:22.96 bitrate=N/A    frame= 1152 fps=5.2 q=24.8 size=N/A time=00:00:23.04 bitrate=N/A    frame= 1156 fps=5.2 q=24.8 size=N/A time=00:00:23.12 bitrate=N/A    frame= 1160 fps=5.2 q=24.8 size=N/A time=00:00:23.20 bitrate=N/A    frame= 1164 fps=5.2 q=24.8 size=N/A time=00:00:23.28 bitrate=N/A    frame= 1168 fps=5.3 q=24.8 size=N/A time=00:00:23.36 bitrate=N/A    frame= 1171 fps=5.3 q=24.8 size=N/A time=00:00:23.42 bitrate=N/A    frame= 1175 fps=5.3 q=24.8 size=N/A time=00:00:23.50 bitrate=N/A    frame= 1179 fps=5.3 q=24.8 size=N/A time=00:00:23.58 bitrate=N/A    frame= 1183 fps=5.3 q=24.8 size=N/A time=00:00:23.66 bitrate=N/A    frame= 1187 fps=5.3 q=24.8 size=N/A time=00:00:23.74 bitrate=N/A    frame= 1191 fps=5.3 q=24.8 size=N/A time=00:00:23.82 bitrate=N/A    frame= 1195 fps=5.3 q=24.8 size=N/A time=00:00:23.90 bitrate=N/A    frame= 1198 fps=5.3 q=24.8 size=N/A time=00:00:23.96 bitrate=N/A    frame= 1202 fps=5.3 q=24.8 size=N/A time=00:00:24.04 bitrate=N/A    frame= 1206 fps=5.3 q=24.8 size=N/A time=00:00:24.12 bitrate=N/A    frame= 1210 fps=5.3 q=24.8 size=N/A time=00:00:24.20 bitrate=N/A    frame= 1214 fps=5.3 q=24.8 size=N/A time=00:00:24.28 bitrate=N/A    frame= 1218 fps=5.3 q=24.8 size=N/A time=00:00:24.36 bitrate=N/A    frame= 1222 fps=5.3 q=24.8 size=N/A time=00:00:24.44 bitrate=N/A    frame= 1226 fps=5.3 q=24.8 size=N/A time=00:00:24.52 bitrate=N/A    frame= 1230 fps=5.3 q=24.8 size=N/A time=00:00:24.60 bitrate=N/A    frame= 1234 fps=5.3 q=24.8 size=N/A time=00:00:24.68 bitrate=N/A    frame= 1239 fps=5.3 q=24.8 size=N/A time=00:00:24.78 bitrate=N/A    frame= 1243 fps=5.3 q=24.8 size=N/A time=00:00:24.86 bitrate=N/A    frame= 1247 fps=5.3 q=24.8 size=N/A time=00:00:24.94 bitrate=N/A    frame= 1251 fps=5.3 q=24.8 size=N/A time=00:00:25.02 bitrate=N/A    frame= 1255 fps=5.3 q=24.8 size=N/A time=00:00:25.10 bitrate=N/A    frame= 1259 fps=5.3 q=24.8 size=N/A time=00:00:25.18 bitrate=N/A    frame= 1262 fps=5.3 q=24.8 size=N/A time=00:00:25.24 bitrate=N/A    frame= 1266 fps=5.3 q=24.8 size=N/A time=00:00:25.32 bitrate=N/A    frame= 1270 fps=5.3 q=24.8 size=N/A time=00:00:25.40 bitrate=N/A    frame= 1274 fps=5.3 q=24.8 size=N/A time=00:00:25.48 bitrate=N/A    frame= 1278 fps=5.3 q=24.8 size=N/A time=00:00:25.56 bitrate=N/A    frame= 1281 fps=5.3 q=24.8 size=N/A time=00:00:25.62 bitrate=N/A    frame= 1285 fps=5.3 q=24.8 size=N/A time=00:00:25.70 bitrate=N/A    frame= 1288 fps=5.3 q=24.8 size=N/A time=00:00:25.76 bitrate=N/A    frame= 1291 fps=5.3 q=24.8 size=N/A time=00:00:25.82 bitrate=N/A    frame= 1295 fps=5.3 q=24.8 size=N/A time=00:00:25.90 bitrate=N/A    frame= 1299 fps=5.4 q=24.8 size=N/A time=00:00:25.98 bitrate=N/A    frame= 1302 fps=5.4 q=24.8 size=N/A time=00:00:26.04 bitrate=N/A    frame= 1305 fps=5.4 q=24.8 size=N/A time=00:00:26.10 bitrate=N/A    frame= 1309 fps=5.4 q=24.8 size=N/A time=00:00:26.18 bitrate=N/A    frame= 1314 fps=5.4 q=24.8 size=N/A time=00:00:26.28 bitrate=N/A    frame= 1315 fps=5.4 q=24.8 Lsize=N/A time=00:00:26.30 bitrate=N/A    
video:1218930kB audio:0kB subtitle:0kB other streams:0kB global headers:0kB muxing overhead: unknown
+ turkic load DJI_0060_30m_regi_disznoturas_jo_homokmegy_20180603_napos_kalaszos_T4 /home/horvathandras/vatic/vatic/videos/DJI_0060_30m_regi_disznoturas_jo_homokmegy_20180603_napos_kalaszos_T4 $'Pozit\303\255vROI' $'Negat\303\255vROI' $'T\303\272r\303\241s' '~Friss' '~1-2Hetes' '~Régebbi' '~Egyéb1' '~Egyéb2' '~Egyéb3' $'R\303\241g\303\241s' '~Friss' '~1-2Hetes' '~Régebbi' '~Egyéb1' '~Egyéb2' '~Egyéb3' $'T\303\266r\303\251s' '~Friss' '~1-2Hetes' '~Régebbi' '~Egyéb1' '~Egyéb2' '~Egyéb3' $'Tapos\303\241s' '~Friss' '~1-2Hetes' '~Régebbi' '~Egyéb1' '~Egyéb2' '~Egyéb3' $'Eg\303\251szs\303\251gesN\303\266v\303\251ny' $'Egy\303\251b1' $'Egy\303\251b2' $'Egy\303\251b3' $'Egy\303\251b4' $'Egy\303\251b5' Bizonytalan $'M\305\261vel\305\221\303\272t' $'Gktapos\303\241s' $'Vet\305\221hiba' $'Sz\303\251ld\303\266nt\303\251s' $'J\303\251gk\303\241r' $'Belv\303\255z' $'Asz\303\241ly' $'Er\303\263zi\303\263' $'Egyszik\305\261Gyom' $'K\303\251tszik\305\261Gyom' $'Egy\303\251bN\303\266vv\303\251delmiPR' --offline --title '$filenameNoDot Video' --length 1000 --description 'vatic annotation'
+ turkic publish --offline
+ mkdir /home/horvathandras/vatic/vatic/public/videothumbnails/DJI_0060_30m_regi_disznoturas_jo_homokmegy_20180603_napos_kalaszos_T4
+ cp /home/horvathandras/vatic/vatic/videos/DJI_0060_30m_regi_disznoturas_jo_homokmegy_20180603_napos_kalaszos_T4/0/0/31.jpg /home/horvathandras/vatic/vatic/public/videothumbnails/DJI_0060_30m_regi_disznoturas_jo_homokmegy_20180603_napos_kalaszos_T4/thumb.jpg
